<svg xmlns="http://www.w3.org/2000/svg" xmlns:xlink="http://www.w3.org/1999/xlink" version="1.1" width="256" height="256" viewBox="0 0 256 256" xml:space="preserve">

<defs>
</defs>
<g style="stroke: none; stroke-width: 0; stroke-dasharray: none; stroke-linecap: butt; stroke-linejoin: miter; stroke-miterlimit: 10; fill: none; fill-rule: nonzero; opacity: 1;" transform="translate(0 -2.842170943040401e-14) scale(2.81 2.81)" >
	<circle cx="45" cy="45" r="45" style="stroke: none; stroke-width: 1; stroke-dasharray: none; stroke-linecap: butt; stroke-linejoin: miter; stroke-miterlimit: 10; fill: rgb(0,0,0); fill-rule: nonzero; opacity: 1;" transform="  matrix(1 0 0 1 0 0) "/>
</g>
<g style="stroke: none; stroke-width: 0; stroke-dasharray: none; stroke-linecap: butt; stroke-linejoin: miter; stroke-miterlimit: 10; fill: none; fill-rule: nonzero; opacity: 1;" transform="translate(46.17984832069338 46.17984832069335) scale(1.82 1.82)" >
	<path d="M 45 54.552 L 45 54.552 c -5.541 0 -10.034 -4.492 -10.034 -10.034 v -3.183 c 0 -5.541 4.492 -10.034 10.034 -10.034 h 0 c 5.541 0 10.034 4.492 10.034 10.034 v 3.183 C 55.034 50.06 50.541 54.552 45 54.552 z" style="stroke: none; stroke-width: 1; stroke-dasharray: none; stroke-linecap: butt; stroke-linejoin: miter; stroke-miterlimit: 10; fill: rgb(241,190,50); fill-rule: nonzero; opacity: 1;" transform=" matrix(1 0 0 1 0 0) " stroke-linecap="round" />
	<path d="M 45 55.552 c -6.084 0 -11.034 -4.95 -11.034 -11.034 v -3.183 c 0 -6.084 4.95 -11.034 11.034 -11.034 s 11.034 4.95 11.034 11.034 v 3.183 C 56.034 50.602 51.084 55.552 45 55.552 z M 45 32.303 c -4.981 0 -9.033 4.052 -9.033 9.033 v 3.183 c 0 4.981 4.052 9.033 9.033 9.033 c 4.981 0 9.033 -4.052 9.033 -9.033 v -3.183 C 54.033 36.355 49.981 32.303 45 32.303 z" style="stroke: none; stroke-width: 1; stroke-dasharray: none; stroke-linecap: butt; stroke-linejoin: miter; stroke-miterlimit: 10; fill: rgb(241,190,50); fill-rule: nonzero; opacity: 1;" transform=" matrix(1 0 0 1 0 0) " stroke-linecap="round" />
	<path d="M 34.21 73.847 l 1.183 15.175 h 19.215 l 1.183 -15.175 h 0 c 4.034 0 7.794 -1.168 10.963 -3.184 c 7.001 -4.455 10.319 -12.944 8.75 -21.093 l -2.134 -11.087 c -0.393 -2.041 -2.179 -3.516 -4.258 -3.516 h 0 c -2.395 0 -4.336 1.941 -4.336 4.336 V 49.1 c 0 6.39 -5.18 11.57 -11.57 11.57 H 36.795 c -6.39 0 -11.57 -5.18 -11.57 -11.57 v -9.796 c 0 -2.395 -1.941 -4.336 -4.336 -4.336 h 0 c -2.079 0 -3.865 1.475 -4.258 3.516 l -2.134 11.087 c -1.569 8.149 1.749 16.638 8.75 21.093 C 26.416 72.679 30.176 73.847 34.21 73.847" style="stroke: none; stroke-width: 1; stroke-dasharray: none; stroke-linecap: butt; stroke-linejoin: miter; stroke-miterlimit: 10; fill: rgb(241,190,50); fill-rule: nonzero; opacity: 1;" transform=" matrix(1 0 0 1 0 0) " stroke-linecap="round" />
	<path d="M 54.607 90.023 H 35.393 c -0.522 0 -0.957 -0.402 -0.998 -0.922 l -1.112 -14.273 c -3.761 -0.161 -7.399 -1.3 -10.572 -3.32 c -7.17 -4.562 -10.865 -13.453 -9.196 -22.126 l 2.134 -11.086 c 0.483 -2.508 2.686 -4.327 5.24 -4.327 c 2.942 0 5.336 2.394 5.336 5.336 V 49.1 c 0 5.828 4.741 10.569 10.569 10.569 h 16.411 c 5.828 0 10.57 -4.741 10.57 -10.569 v -9.796 c 0 -2.942 2.394 -5.336 5.336 -5.336 c 2.553 0 4.756 1.82 5.24 4.327 l 2.135 11.087 c 1.67 8.672 -2.025 17.565 -9.195 22.126 c -3.174 2.02 -6.812 3.159 -10.574 3.32 L 55.605 89.1 C 55.564 89.621 55.13 90.023 54.607 90.023 z M 36.318 88.022 h 17.364 l 1.11 -14.253 c 0.041 -0.521 0.475 -0.922 0.998 -0.922 c 3.708 0 7.313 -1.046 10.426 -3.027 c 6.484 -4.125 9.82 -12.186 8.304 -20.059 l -2.134 -11.087 c -0.302 -1.567 -1.68 -2.704 -3.275 -2.704 c -1.839 0 -3.335 1.496 -3.335 3.335 V 49.1 c 0 6.931 -5.64 12.57 -12.571 12.57 H 36.795 c -6.931 0 -12.57 -5.639 -12.57 -12.57 v -9.796 c 0 -1.839 -1.496 -3.335 -3.335 -3.335 c -1.596 0 -2.974 1.137 -3.275 2.704 L 15.48 49.76 c -1.515 7.873 1.822 15.934 8.305 20.059 c 3.112 1.98 6.718 3.027 10.426 3.027 c 0.522 0 0.957 0.402 0.998 0.922 L 36.318 88.022 z" style="stroke: none; stroke-width: 1; stroke-dasharray: none; stroke-linecap: butt; stroke-linejoin: miter; stroke-miterlimit: 10; fill: rgb(241,190,50); fill-rule: nonzero; opacity: 1;" transform=" matrix(1 0 0 1 0 0) " stroke-linecap="round" />
	<polygon points="45,0.98 48.08,7.22 54.98,8.22 49.99,13.09 51.16,19.95 45,16.71 38.84,19.95 40.01,13.09 35.02,8.22 41.92,7.22 " style="stroke: none; stroke-width: 1; stroke-dasharray: none; stroke-linecap: butt; stroke-linejoin: miter; stroke-miterlimit: 10; fill: rgb(241,190,50); fill-rule: nonzero; opacity: 1;" transform="  matrix(1 0 0 1 0 0) "/>
	<path d="M 51.165 20.952 c -0.159 0 -0.319 -0.038 -0.465 -0.115 L 45 17.841 l -5.7 2.996 c -0.336 0.177 -0.745 0.148 -1.054 -0.076 c -0.308 -0.224 -0.462 -0.603 -0.398 -0.979 l 1.089 -6.346 l -4.611 -4.494 c -0.273 -0.266 -0.371 -0.663 -0.253 -1.026 c 0.118 -0.362 0.431 -0.626 0.808 -0.681 l 6.372 -0.926 l 2.85 -5.774 c 0.338 -0.683 1.457 -0.683 1.795 0 l 2.85 5.774 l 6.371 0.926 c 0.377 0.055 0.69 0.319 0.808 0.681 c 0.117 0.362 0.02 0.76 -0.253 1.025 l -4.611 4.495 l 1.088 6.346 c 0.064 0.375 -0.09 0.755 -0.398 0.979 C 51.58 20.888 51.372 20.952 51.165 20.952 z M 45 15.71 c 0.16 0 0.32 0.038 0.466 0.115 l 4.371 2.298 l -0.834 -4.867 c -0.056 -0.324 0.052 -0.656 0.287 -0.885 l 3.536 -3.447 l -4.886 -0.71 c -0.326 -0.047 -0.608 -0.252 -0.753 -0.548 L 45 3.238 l -2.185 4.428 c -0.146 0.296 -0.427 0.5 -0.754 0.548 l -4.886 0.71 l 3.536 3.447 c 0.235 0.23 0.343 0.561 0.287 0.886 l -0.835 4.867 l 4.371 -2.298 C 44.68 15.748 44.84 15.71 45 15.71 z" style="stroke: none; stroke-width: 1; stroke-dasharray: none; stroke-linecap: butt; stroke-linejoin: miter; stroke-miterlimit: 10; fill: rgb(241,190,50); fill-rule: nonzero; opacity: 1;" transform=" matrix(1 0 0 1 0 0) " stroke-linecap="round" />
	<polygon points="26.08,16.31 28.01,20.23 32.35,20.86 29.21,23.92 29.95,28.23 26.08,26.19 22.2,28.23 22.94,23.92 19.81,20.86 24.14,20.23 " style="stroke: none; stroke-width: 1; stroke-dasharray: none; stroke-linecap: butt; stroke-linejoin: miter; stroke-miterlimit: 10; fill: rgb(241,190,50); fill-rule: nonzero; opacity: 1;" transform="  matrix(1 0 0 1 0 0) "/>
	<path d="M 29.952 29.231 c -0.159 0 -0.319 -0.038 -0.466 -0.115 l -3.409 -1.792 l -3.409 1.792 c -0.337 0.177 -0.745 0.149 -1.054 -0.076 c -0.308 -0.224 -0.462 -0.603 -0.398 -0.979 l 0.651 -3.796 l -2.758 -2.688 c -0.273 -0.266 -0.371 -0.663 -0.254 -1.026 c 0.118 -0.362 0.431 -0.626 0.808 -0.681 l 3.812 -0.554 l 1.705 -3.453 c 0.169 -0.341 0.516 -0.558 0.897 -0.558 l 0 0 c 0.381 0 0.729 0.216 0.897 0.558 l 1.704 3.453 l 3.812 0.554 c 0.377 0.055 0.69 0.319 0.808 0.681 c 0.118 0.362 0.02 0.76 -0.253 1.026 l -2.758 2.688 l 0.651 3.796 c 0.064 0.375 -0.09 0.755 -0.398 0.979 C 30.366 29.166 30.159 29.231 29.952 29.231 z M 26.077 25.193 c 0.16 0 0.32 0.038 0.466 0.115 l 2.08 1.093 l -0.398 -2.316 c -0.055 -0.324 0.052 -0.656 0.288 -0.886 l 1.683 -1.64 l -2.326 -0.338 c -0.326 -0.047 -0.607 -0.252 -0.753 -0.548 l -1.04 -2.107 l -1.041 2.107 c -0.146 0.296 -0.427 0.5 -0.753 0.548 l -2.326 0.338 l 1.683 1.64 c 0.236 0.23 0.344 0.561 0.288 0.886 l -0.398 2.316 l 2.08 -1.093 C 25.757 25.231 25.918 25.193 26.077 25.193 z" style="stroke: none; stroke-width: 1; stroke-dasharray: none; stroke-linecap: butt; stroke-linejoin: miter; stroke-miterlimit: 10; fill: rgb(241,190,50); fill-rule: nonzero; opacity: 1;" transform=" matrix(1 0 0 1 0 0) " stroke-linecap="round" />
	<polygon points="63.92,16.31 65.86,20.23 70.19,20.86 67.06,23.92 67.8,28.23 63.92,26.19 60.05,28.23 60.79,23.92 57.65,20.86 61.99,20.23 " style="stroke: none; stroke-width: 1; stroke-dasharray: none; stroke-linecap: butt; stroke-linejoin: miter; stroke-miterlimit: 10; fill: rgb(241,190,50); fill-rule: nonzero; opacity: 1;" transform="  matrix(1 0 0 1 0 0) "/>
	<path d="M 60.049 29.231 c -0.207 0 -0.413 -0.064 -0.588 -0.191 c -0.308 -0.224 -0.462 -0.603 -0.398 -0.979 l 0.651 -3.796 l -2.758 -2.688 c -0.273 -0.266 -0.37 -0.663 -0.253 -1.026 c 0.118 -0.362 0.431 -0.626 0.808 -0.681 l 3.811 -0.554 l 1.705 -3.453 c 0.336 -0.683 1.458 -0.683 1.794 0 l 1.705 3.453 l 3.811 0.554 c 0.377 0.055 0.69 0.319 0.808 0.681 c 0.117 0.362 0.02 0.76 -0.253 1.026 l -2.758 2.688 l 0.652 3.795 c 0.064 0.376 -0.09 0.755 -0.398 0.979 c -0.308 0.225 -0.718 0.253 -1.053 0.076 l -3.41 -1.792 l -3.408 1.792 C 60.368 29.193 60.208 29.231 60.049 29.231 z M 63.923 25.193 c 0.16 0 0.319 0.038 0.465 0.115 l 2.081 1.093 l -0.398 -2.316 c -0.056 -0.324 0.052 -0.656 0.287 -0.886 l 1.683 -1.64 l -2.325 -0.338 c -0.326 -0.047 -0.608 -0.252 -0.753 -0.548 l -1.041 -2.108 l -1.041 2.108 c -0.146 0.296 -0.427 0.5 -0.753 0.548 l -2.325 0.338 l 1.683 1.64 c 0.235 0.23 0.343 0.561 0.287 0.886 l -0.397 2.316 l 2.079 -1.093 C 63.603 25.231 63.762 25.193 63.923 25.193 z" style="stroke: none; stroke-width: 1; stroke-dasharray: none; stroke-linecap: butt; stroke-linejoin: miter; stroke-miterlimit: 10; fill: rgb(241,190,50); fill-rule: nonzero; opacity: 1;" transform=" matrix(1 0 0 1 0 0) " stroke-linecap="round" />
</g>
</svg>